<?xml version="1.0" encoding="utf-8"?>
<!-- Generator: Adobe Illustrator 16.0.0, SVG Export Plug-In . SVG Version: 6.00 Build 0)  -->
<!DOCTYPE svg PUBLIC "-//W3C//DTD SVG 1.1//EN" "http://www.w3.org/Graphics/SVG/1.1/DTD/svg11.dtd">
<svg version="1.1" id="Calque_1" xmlns="http://www.w3.org/2000/svg" xmlns:xlink="http://www.w3.org/1999/xlink" x="0px" y="0px"
	 width="236.667px" height="43.333px" viewBox="0 0 236.667 43.333" enable-background="new 0 0 236.667 43.333"
	 xml:space="preserve">
<g>
	<path fill="#FFFFFF" d="M86.398,15.362c-1.486-1.294-3.433-1.95-5.785-1.95h-7.908L69.37,37.306h5.875l1.196-8.62h3.422
		c2.638,0,4.782-0.685,6.372-2.036c1.615-1.372,2.434-3.363,2.434-5.92C88.668,18.479,87.904,16.674,86.398,15.362z M77.918,18.033
		h0.748c1.313,0,2.324,0.271,3.003,0.804c0.651,0.511,0.967,1.194,0.967,2.089c0,0.989-0.329,1.742-1.004,2.303
		c-0.694,0.576-1.728,0.868-3.072,0.868h-1.483L77.918,18.033z"/>
	<path fill="#FFFFFF" d="M105.94,29.313c-0.492-1.021-1.053-1.8-1.677-2.327c1.238-0.409,2.238-1.076,2.982-1.991
		c0.95-1.168,1.432-2.58,1.432-4.199c0-1.996-0.73-3.744-2.169-5.193c-1.44-1.453-3.476-2.189-6.05-2.189h-8.285l-3.335,23.894
		h5.875l1.284-9.259h0.595c1.061,0,1.819,0.212,2.255,0.631C99.183,29,99.829,29.905,101,32.385l2.325,4.921h6.486L105.94,29.313z
		 M97.354,18.264h1.947c1.088,0,1.937,0.227,2.523,0.673c0.553,0.422,0.822,0.989,0.822,1.735c0,0.802-0.338,1.45-1.035,1.981
		c-0.727,0.556-1.784,0.837-3.143,0.837H96.63L97.354,18.264z"/>
	<path fill="#FFFFFF" d="M132.918,16.167c-2.184-2.023-5.033-3.05-8.469-3.05c-3.982,0-7.337,1.278-9.973,3.801
		c-2.642,2.529-3.981,5.741-3.981,9.547c0,3.224,1.151,5.917,3.423,8.005c2.258,2.077,5.157,3.131,8.615,3.131
		c3.975,0,7.284-1.27,9.838-3.772c2.558-2.507,3.854-5.794,3.854-9.771C136.225,20.855,135.112,18.201,132.918,16.167z
		 M127.965,30.053c-1.495,1.562-3.262,2.32-5.4,2.32c-1.8,0-3.224-0.557-4.354-1.703c-1.133-1.147-1.683-2.598-1.683-4.434
		c0-2.15,0.758-4.024,2.252-5.568c1.509-1.563,3.257-2.322,5.344-2.322c1.779,0,3.205,0.558,4.358,1.706
		c1.152,1.146,1.712,2.563,1.712,4.332C130.193,26.63,129.465,28.484,127.965,30.053z"/>
	<path fill="#F47D20" d="M158.246,16.676c-2.114-2.165-5.188-3.264-9.133-3.264h-8.039l-3.334,23.894h12.39
		c3.188,0,5.9-1.179,8.06-3.503c2.149-2.313,3.239-5.256,3.239-8.747C161.429,21.659,160.358,18.84,158.246,16.676z M146.272,18.264
		h1.907c2.226,0,4.006,0.63,5.289,1.873c1.299,1.256,1.93,2.846,1.93,4.862c0,2.187-0.635,4.005-1.887,5.403
		c-1.256,1.403-2.967,2.085-5.23,2.085h-3.979L146.272,18.264z"/>
	<path fill="#F47D20" d="M181.912,13.412l-2.01,14.295c-0.211,1.528-0.782,2.7-1.699,3.483c-0.918,0.785-2.109,1.183-3.542,1.183
		c-1.413,0-2.567-0.366-3.433-1.089c-0.85-0.71-1.263-1.75-1.263-3.181c0-0.359,0.026-0.752,0.077-1.158l1.934-13.533h-5.876
		l-1.947,13.46c-0.09,0.648-0.136,1.284-0.136,1.888c0,2.765,0.941,4.958,2.798,6.52c1.831,1.54,4.47,2.321,7.841,2.321
		c6.451,0,10.161-3.146,11.027-9.347l2.104-14.842H181.912z"/>
	<path fill="#F47D20" d="M204.028,18.346c1.825,0,3.639,0.273,5.392,0.813l0.534,0.165l0.995-5.241l-0.457-0.115
		c-2.246-0.564-4.377-0.851-6.333-0.851c-4.507,0-8.24,1.269-11.096,3.771c-2.875,2.519-4.333,5.796-4.333,9.741
		c0,3.242,1.09,5.912,3.238,7.936c2.14,2.015,4.968,3.036,8.405,3.036c2.703,0,5.478-0.621,8.248-1.846l0.255-0.112l0.883-6.385
		l-0.885,0.51c-3,1.729-5.717,2.605-8.075,2.605c-1.858,0-3.348-0.515-4.426-1.528c-1.085-1.02-1.612-2.36-1.612-4.101
		c0-2.248,0.815-4.232,2.424-5.896C198.79,19.188,201.092,18.346,204.028,18.346z"/>
	<polygon fill="#F47D20" points="235.202,13.412 228.012,13.412 219.201,22.265 220.449,13.412 214.573,13.412 211.204,37.306 
		217.08,37.306 218.678,25.982 226.736,37.306 233.594,37.306 224.371,24.32 	"/>
</g>
<g>
	<path fill="none" stroke="#F47D20" stroke-width="4" stroke-miterlimit="10" d="M27.796,20.13L2.884,14.311
		c0,0-1.071,26.631,28.93,26.631c7.246,0,16.855-3.643,14.464-10.102c-2.946-7.958-18.43-1.606-23.251,0"/>
	<path fill="none" stroke="#F47D20" stroke-width="4" stroke-miterlimit="10" d="M41.189,20.13c-4.882,0-8.84-3.957-8.84-8.841
		c0-4.882,3.958-8.839,8.84-8.839s8.84,3.957,8.84,8.839h12.857"/>
</g>
</svg>
